<?xml version="1.0" encoding="UTF-8"?>
<svg id="Layer_1" xmlns="http://www.w3.org/2000/svg" version="1.1" viewBox="0 0 240 240">
  <!-- Generator: Adobe Illustrator 29.8.2, SVG Export Plug-In . SVG Version: 2.1.1 Build 3)  -->
  <defs>
    <style>
      .st0 {
        fill: #fff;
      }
    </style>
  </defs>
  <path class="st0" d="M120,35.8c-46.5,0-84.2,37.7-84.2,84.2s37.7,84.2,84.2,84.2,84.2-37.7,84.2-84.2-37.7-84.2-84.2-84.2ZM88,136.9h-9.7c-6.9,0-12.6-5.7-12.6-12.6v-32.9c0-6.9,5.7-12.6,12.6-12.6h56.5c6.9,0,12.6,5.7,12.6,12.6v7.1h-12v-7.1c0-.4-.3-.6-.6-.6h-56.5c-.4,0-.6.3-.6.6v32.9c0,.4.3.6.6.6h9.7v12ZM175.1,148.6c0,7.4-6.1,13.5-13.5,13.5h-54.7c-7.4,0-13.5-6.1-13.5-13.5v-31.2c0-7.4,6.1-13.5,13.5-13.5h54.7c7.4,0,13.5,6.1,13.5,13.5v31.2Z"/>
  <rect class="st0" x="105.4" y="115.9" width="57.7" height="34.2" rx="1.5" ry="1.5"/>
</svg>