<?xml version="1.0" encoding="UTF-8"?>
<svg id="Layer_1" xmlns="http://www.w3.org/2000/svg" version="1.1" viewBox="0 0 240 240">
  <!-- Generator: Adobe Illustrator 29.8.2, SVG Export Plug-In . SVG Version: 2.1.1 Build 3)  -->
  <defs>
    <style>
      .st0 {
        fill: #fff;
      }

      .st1 {
        fill: none;
        stroke: #fff;
        stroke-miterlimit: 10;
        stroke-width: 6px;
      }
    </style>
  </defs>
  <g>
    <path class="st0" d="M583.8,14c6.6,0,11.9,5.4,11.9,11.9v63.5h63.5c6.6,0,11.9,5.4,11.9,11.9v37.2c0,6.6-5.4,11.9-11.9,11.9h-63.5v63.5c0,6.6-5.4,11.9-11.9,11.9h-37.2c-6.6,0-11.9-5.4-11.9-11.9v-63.5h-63.5c-6.6,0-11.9-5.4-11.9-11.9v-37.2c0-6.6,5.4-11.9,11.9-11.9h63.5V25.9c0-6.6,5.4-11.9,11.9-11.9h37.2M583.8,8h-37.2c-9.9,0-17.9,8-17.9,17.9v57.5h-57.5c-9.9,0-17.9,8-17.9,17.9v37.2c0,9.9,8,17.9,17.9,17.9h57.5v57.5c0,9.9,8,17.9,17.9,17.9h37.2c9.9,0,17.9-8,17.9-17.9v-57.5h57.5c9.9,0,17.9-8,17.9-17.9v-37.2c0-9.9-8-17.9-17.9-17.9h-57.5V25.9c0-9.9-8-17.9-17.9-17.9h0Z"/>
    <g>
      <path class="st0" d="M562.4,35.6l-10.7,13.3c-1.9,2.3-.2,5.8,2.8,5.8h21.4c3,0,4.7-3.5,2.8-5.8l-10.7-13.3c-1.4-1.8-4.2-1.8-5.6,0Z"/>
      <path class="st0" d="M568,204.4l10.7-13.3c1.9-2.3.2-5.8-2.8-5.8h-21.4c-3,0-4.7,3.5-2.8,5.8l10.7,13.3c1.4,1.8,4.2,1.8,5.6,0Z"/>
    </g>
    <g>
      <path class="st0" d="M649.6,117.2l-13.3-10.7c-2.3-1.9-5.8-.2-5.8,2.8v21.4c0,3,3.5,4.7,5.8,2.8l13.3-10.7c1.8-1.4,1.8-4.2,0-5.6Z"/>
      <path class="st0" d="M480.8,122.8l13.3,10.7c2.3,1.9,5.8.2,5.8-2.8v-21.4c0-3-3.5-4.7-5.8-2.8l-13.3,10.7c-1.8,1.4-1.8,4.2,0,5.6Z"/>
    </g>
  </g>
  <g>
    <rect class="st1" x="22.2" y="83.7" width="195.5" height="66.7" rx="21.3" ry="21.3"/>
    <g>
      <line class="st1" x1="81" y1="150.4" x2="81" y2="223.7"/>
      <line class="st1" x1="159" y1="150.4" x2="159" y2="223.7"/>
    </g>
    <path class="st0" d="M122.8,61.3l31.5-39.2c1.9-2.3.2-5.8-2.8-5.8h-63c-3,0-4.7,3.5-2.8,5.8l31.5,39.2c1.4,1.8,4.2,1.8,5.6,0Z"/>
    <path class="st0" d="M120,222"/>
  </g>
</svg>