<?xml version="1.0" encoding="UTF-8"?>
<svg id="Layer_1" xmlns="http://www.w3.org/2000/svg" version="1.1" viewBox="0 0 64 64">
  <!-- Generator: Adobe Illustrator 29.8.2, SVG Export Plug-In . SVG Version: 2.1.1 Build 3)  -->
  <defs>
    <style>
      .st0 {
        fill: #fcfcfc;
      }
    </style>
  </defs>
  <path class="st0" d="M15.7,17.3c.9-.6,1.8-1.1,2.9-1.4,1-.3,2.1-.5,3.1-.4h21.1c2.1,0,4.1.7,6,2,1.8,1.3,3,3,3.7,5l.7,3.2,2.8,17.3c.2.7.2,1.4,0,2.1-.2.7-.5,1.3-1,1.8-.6.7-1.3,1.2-2.2,1.4l-2.6-.2c-.4-.1-.8-.4-1.2-.8l-1.1-1.1-3.4-3.4-3.3-3.3h-18l-7.6,7.7c-.4.5-1,.9-1.6,1.1l-1.9.2c-1.1,0-2.1-.6-2.9-1.5-.8-.9-1.1-2-1-3l3.1-19.7c.2-1.4.8-2.7,1.6-3.9.8-1.2,1.8-2.2,2.9-3M40,28.5c0-.6-.2-1.1-.6-1.5-.4-.4-.8-.5-1.4-.5s-1,.2-1.5.5c-.4.4-.5.9-.5,1.5s.2,1,.5,1.4c.4.4.9.6,1.5.6s1-.2,1.4-.6c.4-.4.6-.8.6-1.4M20,22.5v4h-4v4h4v4h4v-4h4v-4h-4v-4h-4M44,32.5c0-.6-.2-1.1-.6-1.5-.4-.4-.8-.5-1.4-.5s-1,.2-1.5.5c-.4.4-.5.9-.5,1.5s.2,1,.5,1.4c.4.4.9.6,1.5.6s1-.2,1.4-.6c.4-.4.6-.8.6-1.4M48,28.5c0-.6-.2-1.1-.6-1.5-.4-.4-.8-.5-1.4-.5s-1,.2-1.5.5c-.4.4-.5.9-.5,1.5s.2,1,.5,1.4c.4.4.9.6,1.5.6s1-.2,1.4-.6c.4-.4.6-.8.6-1.4M44,24.5c0-.6-.2-1.1-.6-1.5-.4-.4-.8-.5-1.4-.5s-1,.2-1.5.5c-.4.4-.5.9-.5,1.5s.2,1,.5,1.4c.4.4.9.6,1.5.6s1-.2,1.4-.6c.4-.4.6-.8.6-1.4"/>
</svg>